<svg xmlns="http://www.w3.org/2000/svg" width="24" height="25" fill="none"><path fill="#002EFF" fill-rule="evenodd" d="M2.25.5A2.25 2.25 0 0 0 0 2.75V18.5a2.25 2.25 0 0 0 2.25 2.25h19.5A2.25 2.25 0 0 0 24 18.5V2.75A2.25 2.25 0 0 0 21.75.5H2.25ZM1.5 2.75A.75.75 0 0 1 2.25 2h19.5a.75.75 0 0 1 .75.75V18.5a.75.75 0 0 1-.75.75H2.25a.75.75 0 0 1-.75-.75V2.75Zm5.25 21c0 .414.336.75.75.75h9a.75.75 0 0 0 0-1.5h-9a.75.75 0 0 0-.75.75Z" clip-rule="evenodd"/><path fill="#002EFF" d="M15.587 7.231a.396.396 0 0 0-.448.03l-.743.643c-.117.101-.107.255.02.344 0 0 1.147.795 1.147 2.506 0 1.622-1.21 2.556-1.21 2.556a.22.22 0 0 0-.01.355l.738.634a.403.403 0 0 0 .45.031s1.732-1.114 1.732-3.57c0-2.439-1.676-3.529-1.676-3.529Z"/><path fill="#002EFF" fill-rule="evenodd" d="M8.994 11.546s-.206-.02-.206.148c0 .945.702 1.618 1.805 1.618.818 0 1.168-.198 1.662-.57.116-.086.24-.167.333-.065.065.07.934.875.934.875.109.102.079.224-.038.322-.116.099-1.415 1.11-2.907 1.11-1.953 0-3.827-.851-3.827-4.06 0-2.588 1.461-4.049 3.605-4.049 2.302 0 3.604 1.613 3.604 3.789v.55a.326.326 0 0 1-.331.332H8.994Zm2.742-2.206c-.222-.471-.682-.822-1.381-.822s-1.159.35-1.381.822c-.127.29-.176.503-.192.852h3.145a2.117 2.117 0 0 0-.191-.852Z" clip-rule="evenodd"/></svg>